# xmcd CD database file
#
# Track frame offsets:
#	150
#	6982
#	58766
#	79987
#	109463
#	139348
#	167535
#	189822
#	235330
#	269959
#	283143
#
# Disc length: 3910 seconds
#
# Revision: 0
# Processed by: cddbd v1.5.2PL0 Copyright (c) Steve Scherf et al.
# Submitted via: CDex 1.51
#
DISCID=a70f440b
DTITLE=Berndt Luef - Jazztett Forum Graz - Deviation
DYEAR=1999
DGENRE=Jazz
TTITLE0=Deviation
TTITLE1=The Refugees - Part One
TTITLE2=The Refugees - Part Two
TTITLE3=The Refugees - Part Three
TTITLE4=Das Teil
TTITLE5=Eyelash
TTITLE6=Bus 63
TTITLE7=In Another Space Of Time
TTITLE8=Nyerere
TTITLE9=Edallab
TTITLE10=Necnon
EXTD=YEAR: 1999
EXTT0=
EXTT1=
EXTT2=
EXTT3=
EXTT4=
EXTT5=
EXTT6=
EXTT7=
EXTT8=
EXTT9=
EXTT10=
PLAYORDER=
